/* eslint-disable */

<svg x="0px" y="0px" width="640px" height="480px" viewBox="0 0 640 480" enable-background="new 0 0 640 480" xml: space="preserve">
    <g>
        <path fill="#FFFFFF" d="M250.822,217.012c0,0.017-0.004,0.077-0.013,0.179c-0.008,0.103-0.055,0.214-0.139,0.333
            c-0.084,0.12-0.222,0.227-0.412,0.32c-0.19,0.094-0.467,0.141-0.83,0.141c-0.49,0-0.872-0.027-1.146-0.082
		c-0.275-0.054-0.478-0.129-0.608-0.225c-0.131-0.096-0.211-0.205-0.241-0.325c-0.03-0.121-0.044-0.244-0.044-0.369
		c0-1.277,0.319-2.372,0.958-3.285c0.639-0.913,1.535-1.66,2.689-2.243c1.154-0.583,2.538-1.012,4.152-1.286
		c1.614-0.274,3.396-0.412,5.347-0.412c1.295,0,2.657,0.063,4.087,0.188c1.43,0.126,2.907,0.255,4.431,0.389
		c0.436,0.12,0.736,0.291,0.903,0.512c0.167,0.223,0.25,0.457,0.25,0.705c0,0.162-0.023,0.333-0.07,0.512
		c-0.047,0.179-0.118,0.346-0.211,0.5c-0.094,0.154-0.22,0.28-0.378,0.378c-0.158,0.098-0.335,0.147-0.53,0.147
		c-0.02,0-0.049-0.001-0.087-0.004c-0.039-0.003-0.08-0.006-0.123-0.009c-0.566-0.044-1.178-0.091-1.834-0.142
		s-1.34-0.104-2.053-0.159c-0.712-0.055-1.449-0.093-2.212-0.115c-0.762-0.021-1.535-0.032-2.319-0.032
		c-0.232,0-0.51,0.01-0.833,0.031c-0.323,0.021-0.635,0.045-0.937,0.073c-0.345,0.028-0.702,0.063-1.072,0.104
		c0,0.077-0.009,0.164-0.026,0.261c-0.018,0.097-0.041,0.253-0.07,0.466c-0.029,0.213-0.077,0.496-0.144,0.847
		c-0.066,0.352-0.125,0.776-0.175,1.273c-0.05,0.498-0.126,1.123-0.229,1.875c-0.103,0.753-0.196,1.697-0.281,2.832h7.083
		c0.205,0,0.363,0.039,0.474,0.115c0.111,0.077,0.192,0.173,0.244,0.29c0.051,0.116,0.081,0.241,0.089,0.374
		c0.009,0.133,0.013,0.26,0.013,0.38c0,0.386-0.09,0.675-0.269,0.868c-0.18,0.193-0.363,0.29-0.551,0.29
		c-0.06,0-0.256,0.006-0.589,0.018c-0.333,0.012-0.739,0.026-1.217,0.042c-0.479,0.016-1.004,0.034-1.576,0.054
		s-1.125,0.039-1.659,0.056s-1.015,0.032-1.442,0.045c-0.428,0.013-0.733,0.019-0.916,0.019c-0.192,1.027-0.378,2.02-0.558,2.979
		c-0.179,0.959-0.417,1.856-0.711,2.689c-0.294,0.833-0.643,1.591-1.044,2.274c-0.401,0.684-0.88,1.269-1.435,1.756
		c-0.555,0.486-1.196,0.865-1.922,1.134s-1.559,0.404-2.499,0.404c-0.194,0-0.428-0.013-0.702-0.039
		c-0.273-0.026-0.56-0.068-0.858-0.128c-0.299-0.06-0.596-0.139-0.891-0.237c-0.294-0.098-0.557-0.22-0.788-0.365
		c-0.231-0.145-0.419-0.314-0.564-0.506c-0.145-0.192-0.218-0.412-0.218-0.66c0-0.128,0.028-0.297,0.083-0.506
		c0.055-0.209,0.141-0.412,0.256-0.608c0.116-0.196,0.261-0.367,0.436-0.513c0.175-0.145,0.386-0.218,0.634-0.218
		c0.282,0,0.579,0.047,0.891,0.141c0.312,0.094,0.634,0.198,0.967,0.314c0.333,0.115,0.673,0.22,1.019,0.313
		c0.347,0.094,0.697,0.141,1.052,0.141c0.285,0,0.562-0.113,0.829-0.339s0.521-0.538,0.758-0.935s0.464-0.862,0.68-1.396
		s0.418-1.11,0.608-1.729s0.362-1.266,0.516-1.94c0.154-0.675,0.308-1.35,0.462-2.024l-1.594-0.002
		c-0.147,0-0.329-0.016-0.544-0.048c-0.216-0.032-0.423-0.087-0.622-0.164c-0.199-0.077-0.367-0.18-0.505-0.31
		c-0.138-0.129-0.208-0.291-0.208-0.485c0-0.136,0.039-0.265,0.116-0.386c0.077-0.12,0.207-0.209,0.387-0.265
		c0.481-0.097,0.902-0.181,1.264-0.253c0.361-0.072,0.681-0.134,0.96-0.187s0.526-0.099,0.741-0.139
		c0.215-0.04,0.413-0.072,0.593-0.096c0.206-1.007,0.37-1.851,0.49-2.532s0.224-1.293,0.31-1.839
		c0.086-0.546,0.167-1.06,0.245-1.542c0.078-0.482,0.167-1.001,0.268-1.555c-0.75,0.214-1.401,0.47-1.954,0.769
		c-0.552,0.299-1.009,0.619-1.372,0.96c-0.362,0.342-0.629,0.696-0.802,1.063C250.908,216.303,250.822,216.662,250.822,217.012z"/>
	<path fill="#FFFFFF" d="M269.86,229.811c-0.308,0.282-0.69,0.583-1.147,0.903c-0.457,0.32-0.95,0.615-1.479,0.884
            c-0.53,0.269-1.07,0.494-1.621,0.673c-0.551,0.179-1.074,0.269-1.57,0.269c-0.444,0-0.818-0.062-1.121-0.186
		c-0.303-0.124-0.549-0.297-0.736-0.519c-0.188-0.222-0.323-0.493-0.404-0.813s-0.122-0.673-0.122-1.057
		c0-0.538,0.06-1.166,0.179-1.883c0.247-1.484,0.404-2.318,0.475-2.501c0.116-0.365,0.349-1.173,0.698-2.424
		c0.324-1.021,0.524-1.685,0.601-1.992c0.042-0.216,0.16-0.41,0.353-0.583c0.176-0.155,0.375-0.283,0.598-0.382
		c0.223-0.099,0.454-0.172,0.692-0.22c0.239-0.047,0.456-0.071,0.648-0.071c0.353,0,0.592,0.066,0.717,0.199
		c0.126,0.132,0.189,0.31,0.189,0.532c0,0.188-0.044,0.454-0.131,0.796c-0.088,0.343-0.188,0.734-0.3,1.173
		s-0.278,1.003-0.498,1.693c-0.22,0.69-0.371,1.278-0.451,1.765c-0.081,0.487-0.183,0.97-0.306,1.451
		c-0.123,0.48-0.184,0.917-0.184,1.31c0,0.384,0.042,0.689,0.128,0.916c0.085,0.226,0.26,0.339,0.525,0.339
		c0.308,0,0.649-0.106,1.025-0.32c0.376-0.213,0.756-0.472,1.141-0.775s0.76-0.617,1.127-0.942c0.367-0.324,0.692-0.602,0.974-0.833
		V229.811z M264.133,216.366c0-0.198,0.042-0.422,0.128-0.672s0.225-0.485,0.417-0.705c0.192-0.22,0.449-0.405,0.769-0.556
		s0.719-0.227,1.198-0.227c0.299,0,0.581,0.035,0.846,0.104c0.265,0.069,0.495,0.175,0.692,0.317
		c0.196,0.142,0.352,0.33,0.467,0.563s0.173,0.509,0.173,0.828c0,0.293-0.047,0.578-0.141,0.854
		c-0.094,0.276-0.244,0.522-0.448,0.737c-0.205,0.215-0.464,0.39-0.775,0.524c-0.312,0.133-0.686,0.2-1.121,0.2
		c-0.751,0-1.307-0.179-1.666-0.537S264.133,216.961,264.133,216.366z"/>
	<path fill="#FFFFFF" d="M273.076,225.477c0.308-0.4,0.645-0.839,1.012-1.317s0.728-0.935,1.083-1.369
            c0.354-0.435,0.711-0.887,1.07-1.356c0.359-0.469,0.624-0.765,0.794-0.887c0.265-0.191,0.589-0.354,0.974-0.489
		c0.384-0.135,0.812-0.203,1.281-0.203c0.239,0,0.468,0.057,0.686,0.17c0.218,0.113,0.408,0.274,0.57,0.482
		c0.162,0.208,0.29,0.461,0.384,0.756c0.094,0.295,0.141,0.626,0.141,0.991c0,0.357-0.117,0.781-0.352,1.272
		s-0.48,0.919-0.737,1.284s-0.534,0.73-0.833,1.096c-0.299,0.365-0.577,0.732-0.833,1.102c-0.256,0.369-0.47,0.736-0.641,1.102
		s-0.256,0.73-0.256,1.096c0,0.313,0.075,0.537,0.224,0.671c0.149,0.135,0.382,0.202,0.699,0.202c0.17,0,0.356-0.059,0.557-0.176
		c0.201-0.118,0.408-0.272,0.621-0.463c0.214-0.191,0.43-0.404,0.647-0.639s0.427-0.474,0.627-0.717
		c0.201-0.244,0.391-0.476,0.57-0.698s0.341-0.411,0.487-0.567l0.769,3.195c-0.265,0.359-0.6,0.692-1.005,1
		c-0.406,0.307-0.846,0.574-1.32,0.802s-0.965,0.405-1.474,0.533c-0.508,0.128-0.997,0.191-1.467,0.191
		c-0.615,0-1.117-0.07-1.505-0.209s-0.694-0.324-0.916-0.555s-0.374-0.491-0.455-0.782c-0.081-0.291-0.122-0.591-0.122-0.901
		c0-0.2,0.023-0.445,0.071-0.737c0.046-0.291,0.136-0.619,0.269-0.984c0.132-0.365,0.318-0.767,0.557-1.206
		c0.239-0.438,0.551-0.91,0.935-1.415c0.154-0.156,0.295-0.297,0.423-0.424c0.128-0.126,0.239-0.239,0.333-0.339
		c0.094-0.1,0.167-0.193,0.218-0.28c0.051-0.087,0.077-0.178,0.077-0.274c0-0.183-0.032-0.331-0.096-0.443
		c-0.064-0.113-0.156-0.17-0.275-0.17c-0.146,0-0.333,0.096-0.563,0.287c-0.239,0.2-0.492,0.535-0.756,1.004l-3.767,6.581
		c-0.205,0.311-0.41,0.529-0.615,0.657s-0.444,0.191-0.718,0.191c-0.367,0-0.658-0.074-0.871-0.223
		c-0.213-0.148-0.376-0.35-0.487-0.603c-0.111-0.253-0.182-0.546-0.211-0.88c-0.03-0.334-0.045-0.689-0.045-1.067
		c0-0.495,0.017-1.15,0.051-1.966c0.034-0.816,0.085-1.712,0.154-2.688s0.16-1.999,0.275-3.066s0.254-2.105,0.417-3.112
		c0.063-0.346,0.141-0.77,0.233-1.271c0.092-0.501,0.217-1.036,0.375-1.604c0.158-0.567,0.324-1.163,0.498-1.788
		c0.174-0.625,0.387-1.229,0.639-1.813s0.537-1.139,0.853-1.667c0.316-0.528,0.671-0.99,1.064-1.386s0.825-0.709,1.295-0.939
		c0.47-0.23,0.983-0.345,1.539-0.345c0.436,0,0.794,0.07,1.076,0.21c0.282,0.14,0.506,0.336,0.673,0.586
		c0.167,0.251,0.284,0.551,0.352,0.899s0.103,0.727,0.103,1.135c0,0.731-0.092,1.518-0.275,2.36
		c-0.184,0.843-0.417,1.688-0.698,2.535s-0.589,1.67-0.922,2.47c-0.333,0.8-0.653,1.522-0.961,2.167
		c-0.308,0.645-0.579,1.189-0.813,1.632c-0.235,0.443-0.391,0.733-0.468,0.871l-1.524,2.296L273.076,225.477z M275.583,210.99
		c-0.277,0-0.516,0.085-0.715,0.256c-0.199,0.17-0.388,0.413-0.565,0.728c-0.178,0.315-0.355,0.698-0.533,1.15
		c-0.178,0.451-0.379,0.954-0.604,1.507c-0.122,0.497-0.247,1.009-0.376,1.536c-0.128,0.527-0.232,1.048-0.31,1.564
		c-0.079,0.516-0.156,1.023-0.231,1.523c-0.076,0.499-0.146,0.967-0.212,1.403c-0.128,1.077-0.23,2.135-0.307,3.176
		c0.188-0.572,0.394-1.193,0.618-1.865c0.224-0.671,0.446-1.334,0.667-1.989s0.428-1.27,0.622-1.847
		c0.194-0.576,0.356-1.065,0.486-1.467c0.06-0.188,0.146-0.423,0.259-0.705s0.233-0.585,0.362-0.91
		c0.13-0.325,0.259-0.662,0.389-1.012s0.248-0.688,0.356-1.012s0.196-0.628,0.266-0.91c0.069-0.282,0.104-0.521,0.104-0.717
		C275.856,211.127,275.765,210.99,275.583,210.99z"/>
	<path fill="#FFFFFF" d="M294.842,229.365c-0.197,0.276-0.459,0.6-0.788,0.972c-0.329,0.372-0.698,0.726-1.108,1.063
            c-0.41,0.337-0.85,0.622-1.32,0.855s-0.939,0.35-1.409,0.35c-0.567,0-1.041-0.18-1.419-0.539c-0.379-0.359-0.706-0.882-0.981-1.566
		c-0.207,0.236-0.461,0.478-0.762,0.723s-0.631,0.467-0.988,0.666c-0.357,0.199-0.73,0.361-1.117,0.488
		c-0.388,0.127-0.775,0.19-1.163,0.19c-0.41,0-0.809-0.083-1.198-0.252c-0.389-0.168-0.732-0.409-1.031-0.724
		c-0.299-0.314-0.538-0.698-0.718-1.15c-0.179-0.453-0.269-0.963-0.269-1.532c0-0.638,0.09-1.293,0.271-1.966
		c0.18-0.672,0.459-1.4,0.837-2.183s0.784-1.46,1.218-2.03c0.434-0.57,0.908-1.068,1.424-1.494c0.516-0.425,1.059-0.764,1.63-1.015
		s1.154-0.377,1.747-0.377c0.198,0,0.353,0.039,0.464,0.117c0.112,0.078,0.204,0.166,0.277,0.265c0.073,0.1,0.144,0.197,0.212,0.292
		s0.155,0.164,0.258,0.207c0.103,0.043,0.208,0.071,0.316,0.084c0.107,0.013,0.217,0.02,0.329,0.02c0.094,0,0.191-0.002,0.29-0.006
		c0.099-0.004,0.195-0.006,0.29-0.006c0.129,0,0.249,0.013,0.361,0.039s0.21,0.082,0.296,0.168c0.086,0.086,0.152,0.207,0.199,0.362
		c0.047,0.156,0.07,0.367,0.07,0.635c0,0.408-0.043,0.861-0.128,1.359c-0.085,0.498-0.184,1.007-0.293,1.53
		c-0.11,0.522-0.236,1.117-0.377,1.786c-0.141,0.669-0.211,1.232-0.211,1.69c0,0.391,0.036,0.697,0.109,0.918
		c0.072,0.221,0.228,0.331,0.467,0.331c0.18,0,0.367-0.044,0.564-0.133c0.196-0.089,0.395-0.206,0.596-0.349
		c0.201-0.144,0.401-0.307,0.602-0.489s0.391-0.371,0.57-0.565c0.418-0.457,0.841-0.974,1.269-1.549L294.842,229.365z
		 M283.851,228.361c0,0.22,0.015,0.434,0.045,0.641c0.03,0.207,0.083,0.392,0.161,0.555c0.077,0.163,0.18,0.295,0.308,0.396
		c0.128,0.102,0.291,0.152,0.487,0.152c0.317,0,0.604-0.138,0.86-0.413c0.257-0.275,0.479-0.606,0.667-0.993
		c0.188-0.387,0.34-0.787,0.456-1.199c0.116-0.413,0.19-0.757,0.225-1.032l0.956-4.165c-0.35,0-0.692,0.087-1.025,0.26
		c-0.333,0.174-0.647,0.409-0.942,0.705c-0.294,0.296-0.566,0.635-0.813,1.016c-0.248,0.381-0.491,0.851-0.73,1.41
		c-0.239,0.559-0.408,1.05-0.506,1.473C283.9,227.591,283.851,227.989,283.851,228.361z"/>
</g>
</svg>
